#tb 0: 1/8000
#media_type 0: audio
#codec_id 0: pcm_s16le
#sample_rate 0: 8000
#channel_layout_name 0: mono
0,          0,          0,      672,     1344, 0x3c0e906d
0,        672,        672,      672,     1344, 0xd2fcc7cc
0,       1344,       1344,      672,     1344, 0x7848aeb7
0,       2016,       2016,      672,     1344, 0x82e2b37d
0,       2688,       2688,      672,     1344, 0xdeebc252
0,       3360,       3360,      672,     1344, 0x83e5a6ef
0,       4032,       4032,      672,     1344, 0x9a58a8cd
0,       4704,       4704,      672,     1344, 0x081fbbc2
0,       5376,       5376,      672,     1344, 0x4ca36019
0,       6048,       6048,      672,     1344, 0x2ef29445
0,       6720,       6720,      672,     1344, 0xa291bb7c
0,       7392,       7392,      672,     1344, 0xa32cd23a
0,       8064,       8064,      672,     1344, 0x147c9fec
0,       8736,       8736,      672,     1344, 0x2e1ca1b8
0,       9408,       9408,      672,     1344, 0x77bfac0c
0,      10080,      10080,      672,     1344, 0xbf2d97c0
0,      10752,      10752,      672,     1344, 0x114893ac
0,      11424,      11424,      672,     1344, 0xe0b88410
0,      12096,      12096,      672,     1344, 0x76388fee
0,      12768,      12768,      672,     1344, 0xb3019bf5
0,      13440,      13440,      672,     1344, 0x94a2a691
0,      14112,      14112,      672,     1344, 0x739bdae5
0,      14784,      14784,      672,     1344, 0x83bab684
0,      15456,      15456,      672,     1344, 0x94ca84b6
0,      16128,      16128,      672,     1344, 0x54426c4b
0,      16800,      16800,      672,     1344, 0x7451b88f
0,      17472,      17472,      672,     1344, 0xbc4d9be7
0,      18144,      18144,      672,     1344, 0xca539b65
0,      18816,      18816,      672,     1344, 0x3bc4b8fb
0,      19488,      19488,      672,     1344, 0xc3453756
0,      20160,      20160,      672,     1344, 0x1b283764
